<svg width="166" height="103" viewBox="0 0 166 103" fill="none" xmlns="http://www.w3.org/2000/svg">
<path d="M164.935 94.9937C165.014 94.8337 165.094 94.6738 165.094 94.4339C164.696 76.5209 164.378 58.6878 164.06 40.7747C163.901 32.2181 164.06 23.5014 163.504 14.9448C163.185 9.90673 161.834 4.38888 156.506 2.62956C153.325 1.58996 149.667 1.82987 146.407 1.66993C141.557 1.50999 136.706 1.27009 131.776 1.11015C123.029 0.790273 114.202 0.470397 105.455 0.310459C87.0072 -0.0893855 68.4795 -0.169354 49.9517 0.470397C45.1011 0.630335 40.2505 0.870242 35.3999 1.19012C31.9011 1.43002 26.6529 0.790273 23.5517 2.54959C20.6096 4.22894 19.5758 9.10704 18.3831 11.9859C16.4746 16.3842 14.7252 20.7825 13.1349 25.2608C13.1349 25.3407 13.0554 25.5007 13.0554 25.5806C8.76138 36.6963 6.61439 48.1319 4.78548 59.8873C3.83126 66.0449 2.87704 72.2825 1.92283 78.4401C1.04813 84.0379 -0.144644 89.6358 0.0143925 95.3136C0.0143925 96.2732 1.28668 96.4331 1.76379 95.7934C2.55897 95.7934 3.35415 95.7934 4.14933 95.7934C4.30837 95.8733 4.54692 95.8733 4.78548 95.8733C4.865 95.8733 4.94451 95.8733 5.02403 95.7934C7.17102 95.7934 9.23849 95.7934 11.3855 95.7134C13.1349 102.031 20.8481 102.911 26.3349 102.911C30.9469 102.911 34.0481 100.272 34.6048 96.1132C34.6843 96.0333 34.7638 95.8733 34.8433 95.7934C34.8433 95.7134 53.053 96.753 54.8023 96.833C62.7542 96.833 70.706 96.5931 78.6578 96.1932C94.1638 95.5535 109.67 94.6738 125.176 95.4735C127.164 101.311 134.638 102.111 139.966 102.111C144.181 102.111 147.123 99.8718 148.077 96.3531C153.405 95.3935 158.732 94.9937 164.14 95.2336C164.537 95.3935 164.776 95.2336 164.935 94.9937ZM135.752 82.6785C135.672 82.6785 135.593 82.6785 135.513 82.6785C130.345 83.878 124.142 87.5566 124.778 93.5542C123.824 93.4743 122.949 93.4743 121.995 93.4743C122.79 82.5185 135.752 76.2809 145.214 81.319C145.294 81.319 145.373 81.399 145.453 81.399C145.453 83.0783 145.532 84.6777 145.532 86.357C143.067 83.798 139.489 82.2786 135.752 82.6785ZM147.441 89.3159C147.282 80.0395 147.043 70.6831 146.884 61.4067C146.805 59.1676 146.805 56.8485 146.725 54.6094C146.725 52.7701 145.93 49.2514 147.361 48.0519C148.793 46.7724 152.371 47.812 154.279 47.892C156.824 47.892 159.369 47.732 161.913 47.4921C162.072 47.4921 162.231 47.4122 162.39 47.3322C162.629 61.0868 162.947 74.7615 163.185 88.5162C158.176 88.7561 153.166 89.076 148.157 89.3159C147.918 89.3159 147.679 89.3959 147.6 89.5558C147.441 89.3959 147.441 89.3959 147.441 89.3159ZM8.76138 47.732C13.4529 47.5721 18.224 47.4921 22.9156 47.4122C25.1421 47.4122 27.3686 47.4122 29.5951 47.4921C32.1397 47.4921 35.4795 47.0123 37.4674 48.6917C39.4554 50.291 38.8987 53.09 39.0578 55.569C39.2168 58.048 39.3758 60.4471 39.5349 62.9261C39.6939 65.0053 39.9325 67.1645 39.9325 69.3236C28.3228 70.2833 16.7927 70.1233 5.26259 68.7639C5.73969 65.5651 6.2168 62.3664 6.69391 59.0876C7.40957 55.2491 8.04572 51.4106 8.76138 47.732ZM4.06981 76.8407C4.4674 74.3617 4.865 71.8827 5.26259 69.4036C16.8722 70.7631 28.4819 70.923 40.0915 69.9634C40.0915 71.2429 40.2505 72.6824 39.6144 73.8019C38.5807 75.6412 36.5132 76.281 34.4457 76.4409C27.2891 77.2406 19.3373 75.3213 12.5782 78.3601C6.37584 81.0791 5.58066 88.0364 4.14933 93.9541C3.43367 93.9541 2.71801 93.9541 2.00234 93.9541C2.00234 88.2763 3.27463 82.5185 4.06981 76.8407ZM31.6626 98.9921C30.0722 101.231 27.6072 101.151 25.1421 101.071C21.1662 100.991 15.918 100.512 13.771 96.5931C10.4313 90.5154 17.4289 86.437 22.2795 85.3174C26.7325 84.9176 31.1855 87.4766 32.5373 91.9549C33.2529 94.194 33.0939 97.0729 31.6626 98.9921ZM34.7638 94.114C34.7638 93.7941 34.7638 93.5542 34.6843 93.2344C33.8891 87.1567 28.1638 82.7584 22.1204 83.4782C22.0409 83.4782 21.9614 83.4782 21.8819 83.4782C16.8722 84.6777 10.8288 88.1164 11.1469 93.9541C9.39752 93.9541 7.72765 93.9541 5.97825 93.9541C7.01198 89.3159 7.80716 83.3982 11.9421 80.7592C15.759 78.3601 20.7686 78.6 25.1421 78.5201C27.7662 78.4401 30.3903 78.4401 33.0144 78.3601C33.8891 78.3601 34.8433 78.4401 35.7975 78.3601C38.2626 79.7996 38.8987 83.4781 39.4554 86.0372C40.0915 88.8361 40.4096 91.635 40.4891 94.5139C39.1373 94.4339 37.865 94.3539 36.5132 94.194C35.9566 94.194 35.3204 94.114 34.7638 94.114ZM74.3638 94.5938C65.9349 94.9137 57.506 95.1536 49.077 94.9137C46.5325 94.8337 43.9084 94.7538 41.2843 94.5938C41.1252 90.8353 40.6481 87.1567 39.6144 83.4782C39.0578 81.5589 38.5011 79.4797 36.9903 78.2802C37.5469 78.2002 38.1035 78.0403 38.5807 77.8803C41.2048 76.6808 41.8409 73.562 41.9204 70.923C42.0795 65.805 41.2843 60.607 40.9662 55.489C40.8072 52.8501 41.6023 47.732 38.8192 46.2126C37.3084 45.4129 35.0023 45.6528 33.3325 45.6528C30.7879 45.5729 28.4023 45.5729 25.9373 45.5729C20.371 45.5729 14.8048 45.6528 9.23849 45.8128C10.6698 39.0954 12.4192 32.458 14.9638 25.9005C15.0433 25.7406 15.0433 25.6606 15.0433 25.5806C16.3951 21.7421 17.906 17.9836 19.4963 14.2251C20.212 12.4657 21.0072 10.7864 21.7228 9.02707C22.0409 8.38732 22.359 7.10782 22.8361 6.46807C24.1879 4.62878 26.0168 3.90906 28.2433 3.50922C31.7421 2.86947 35.6385 3.0294 39.2168 2.7895C43.3517 2.54959 47.4867 2.38965 51.6216 2.22971C67.6843 1.66993 83.7469 1.66993 99.8096 1.98981C116.111 2.30968 132.492 2.94943 148.793 3.58919C152.292 3.74912 156.665 3.42925 159.21 6.30813C161.675 9.10704 161.754 13.3454 161.913 16.864C162.152 24.781 162.231 32.7778 162.39 40.6948C162.39 42.2942 162.47 43.8935 162.47 45.4929C162.39 45.4129 162.231 45.4129 162.072 45.4129C159.051 45.7328 156.108 45.8927 153.087 45.8128C151.178 45.7328 148.077 44.6132 146.248 45.6528C143.783 47.0123 145.055 52.4502 145.055 54.5294C145.214 62.7662 145.373 71.003 145.532 79.3198C134.877 74.2817 121.12 81.399 120.325 93.3943C104.899 93.0744 89.6313 93.9541 74.3638 94.5938ZM145.294 98.1924C143.704 100.432 141.238 100.352 138.773 100.272C134.798 100.192 129.549 99.7119 127.402 95.7934C124.063 89.7157 131.06 85.6373 135.911 84.5177C140.364 84.1179 144.817 86.6769 146.169 91.1552C146.805 93.3943 146.725 96.2732 145.294 98.1924ZM148.395 94.5139C148.395 93.8741 148.395 93.1544 148.316 92.5146C148.236 92.0348 148.157 91.555 147.998 91.1552C147.998 91.1552 147.998 91.1552 148.077 91.1552C153.087 90.9153 158.176 90.5954 163.185 90.3555C163.185 91.3951 163.265 92.4347 163.265 93.5542C158.255 93.3143 153.325 93.6342 148.395 94.5139Z" fill="#FD4207"/>
<path d="M140.682 60.0472C140.841 60.0472 141 59.8873 141 59.7274C141 57.2483 140.92 54.7693 140.92 52.2903C140.92 50.5309 141.318 48.2918 140.761 46.6924C140.125 44.5333 138.137 44.8531 136.229 44.8531C126.13 44.7732 115.952 45.0131 105.853 45.253C85.4962 45.6528 65.2191 46.2926 44.942 47.3322C44.783 47.3322 44.624 47.4921 44.624 47.5721C44.5444 47.6521 44.5444 47.732 44.5444 47.812C43.9878 52.7701 44.0673 57.8881 44.8625 62.8462C44.8625 63.0061 45.0215 63.0861 45.1806 63.0861C60.448 64.0457 75.9541 63.5659 91.2215 63.166C107.682 62.7662 124.063 61.9665 140.523 60.8469C140.761 60.687 140.841 60.2871 140.682 60.0472ZM131.935 45.5729C134.32 45.5729 137.024 45.0131 138.853 46.5325C140.682 48.0519 140.125 50.6109 140.125 52.93C140.125 55.1691 140.205 57.4882 140.205 59.7274C140.205 59.8073 140.284 59.8873 140.284 59.9673C132.491 60.5271 124.778 60.9269 116.985 61.3267C117.065 56.1288 116.906 50.8508 116.508 45.6528C119.212 45.6528 121.916 45.5729 124.699 45.5729C127.084 45.5729 129.47 45.5729 131.935 45.5729ZM115.793 45.7328C116.19 50.9308 116.349 56.2087 116.27 61.4067C109.034 61.7266 101.797 62.0465 94.5613 62.2064C94.7999 60.607 94.3227 58.208 94.3227 56.6086C94.3227 53.0899 94.2432 49.5713 94.2432 46.0527C95.6746 46.0527 97.1059 45.9727 98.5372 45.9727C104.263 45.8927 110.067 45.8128 115.793 45.7328ZM45.4191 62.2864C44.7035 57.5682 44.624 52.6901 45.1806 47.9719C52.8938 47.5721 60.6071 47.2522 68.3203 46.9323C68.3203 52.1303 68.4794 57.3283 68.6384 62.4463C68.6384 62.6062 68.7179 62.6862 68.877 62.7662C61.0047 62.8462 53.2119 62.7662 45.4191 62.2864ZM69.1155 62.7662C69.195 62.6862 69.3541 62.6062 69.2746 62.4463C69.1155 57.2483 69.036 52.0503 68.9565 46.8524C77.1468 46.5325 85.2577 46.2926 93.4481 46.1326C93.4481 49.2514 93.5276 52.3702 93.5276 55.569C93.5276 57.0084 93.5276 58.4479 93.5276 59.8873C93.5276 60.4471 93.7661 61.5667 93.6866 62.2864C92.8119 62.2864 91.8577 62.3663 90.983 62.3663C83.8264 62.5263 76.5107 62.6862 69.1155 62.7662Z" fill="#FD4207"/>
<path d="M42.7156 24.3811C50.8264 24.3011 59.0168 24.3811 67.1277 24.4611C67.2072 24.541 67.3662 24.541 67.5252 24.4611C83.6674 24.621 99.8096 24.9409 115.952 24.9409C116.031 24.9409 116.111 24.9409 116.19 24.9409C130.106 24.9409 143.942 24.701 157.858 23.9813C158.017 23.9813 158.176 23.9013 158.176 23.7414C158.653 19.8229 159.051 15.0247 157.381 11.3462C156.029 8.38732 153.325 7.6676 150.304 7.4277C137.978 6.14819 125.414 6.22816 113.01 6.22816C88.4385 6.06822 63.8674 5.58841 39.3758 6.78794C35.4795 6.94788 28.7999 6.06822 25.7783 9.18701C22.2795 12.7856 20.371 19.423 19.0192 24.2212C19.0192 24.3011 18.9397 24.3811 18.9397 24.4611C18.9397 24.781 19.2578 24.8609 19.4963 24.781C27.2096 24.541 34.9228 24.3811 42.6361 24.3811C42.6361 24.3811 42.6361 24.3811 42.7156 24.3811ZM157.222 13.5053C158.017 16.7041 157.858 20.0628 157.46 23.2615C151.019 23.5814 144.578 23.8213 138.137 23.9813C138.137 23.9813 138.137 23.9013 138.058 23.9013C138.058 23.9013 138.217 20.7025 138.137 20.2227C138.058 18.7033 137.819 17.1039 137.66 15.5845C137.501 12.8656 137.501 10.1466 137.581 7.4277C140.602 7.58763 143.704 7.74757 146.725 7.90751C151.337 8.14742 155.79 8.06745 157.222 13.5053ZM136.865 7.34773C136.785 10.9463 136.785 14.6249 137.183 18.2235C137.263 18.9432 137.104 22.7018 137.342 23.9813C130.345 24.1412 123.347 24.2212 116.349 24.2212C115.952 21.5822 116.27 18.6233 116.19 15.9844C116.111 12.9456 115.872 9.9867 115.634 6.94788C119.61 6.94788 123.665 7.02785 127.641 7.10782C130.742 7.10782 133.843 7.18779 136.865 7.34773ZM114.918 6.94788C115.157 10.4665 115.395 13.9052 115.475 17.4238C115.554 19.6629 115.316 22.062 115.634 24.3011C107.523 24.3011 99.412 24.2212 91.3011 24.1412C91.4602 24.1412 91.5397 23.9813 91.5397 23.8213C91.3807 18.2235 91.3011 12.6257 91.1421 7.10782C99.0939 6.86791 107.046 6.86791 114.918 6.94788ZM89.1542 6.94788C89.5518 6.94788 90.0288 6.94788 90.4264 6.94788C90.5855 12.5457 90.665 18.1435 90.824 23.7414C90.824 23.9013 90.9035 24.0612 91.0626 24.0612C83.2698 23.9813 75.5566 23.8213 67.7638 23.7414C68.0819 21.8221 67.5252 19.3431 67.4457 17.5038C67.2867 14.0651 67.1276 10.7064 67.0481 7.26776C67.0481 7.10782 66.9686 7.02785 66.8891 6.94788C74.2843 6.86791 81.759 6.94788 89.1542 6.94788ZM66.4915 6.94788C66.412 7.02785 66.3325 7.10782 66.3325 7.26776C66.4915 10.3066 66.571 13.2654 66.7301 16.3042C66.8096 18.5434 67.4457 21.5022 67.0481 23.7414C59.0963 23.6614 51.065 23.5814 43.1132 23.6614C43.5108 18.2235 43.5903 12.8656 43.3517 7.4277C45.8168 7.26776 48.3614 7.18779 50.9855 7.10782C56.1542 7.02785 61.3228 6.94788 66.4915 6.94788ZM25.0626 11.5061C27.0505 8.7072 29.0385 8.22738 32.1397 7.98748C35.559 7.6676 39.0578 7.50766 42.5566 7.34773C42.7951 12.7856 42.7156 18.1435 42.318 23.5814C34.8433 23.6614 27.2891 23.7414 19.8144 23.9813C20.7686 20.8625 21.8819 17.8237 23.3132 14.9448C23.8698 13.8252 24.3469 12.5457 25.0626 11.5061Z" fill="#FD4207"/>
<path d="M23.6311 89.4759C23.5516 89.4759 23.5516 89.4759 23.4721 89.4759C23.3926 89.4759 23.3926 89.3959 23.3131 89.3959C21.3251 89.236 19.3372 90.5954 19.0986 92.7546C18.8601 95.0737 20.689 96.913 22.9155 97.0729C25.0625 97.2329 27.448 96.833 27.8456 94.354C28.2432 91.1552 26.2552 90.4355 23.6311 89.4759ZM23.4721 96.2732C21.6432 96.2732 19.8938 95.3136 19.8143 93.3144C19.7348 91.3152 21.4842 90.0357 23.3131 90.1156L23.3926 90.1956C25.142 90.8354 26.9709 91.1552 27.0504 93.3944C27.2095 95.7934 25.4601 96.3532 23.4721 96.2732Z" fill="#FD4207"/>
<path d="M137.183 88.6762C137.104 88.6762 137.104 88.6762 137.024 88.6762C136.945 88.6762 136.945 88.5962 136.865 88.5962C134.877 88.4363 132.889 89.7958 132.651 91.9549C132.412 94.274 134.241 96.1133 136.467 96.2732C138.614 96.4332 141 96.0333 141.398 93.5543C141.716 90.2756 139.728 89.6358 137.183 88.6762ZM137.024 95.4736C135.195 95.4736 133.446 94.5139 133.366 92.5147C133.287 90.5155 135.036 89.236 136.865 89.3159L136.945 89.3959C138.694 90.0357 140.523 90.3555 140.602 92.5947C140.761 94.9937 138.933 95.5535 137.024 95.4736Z" fill="#FD4207"/>
</svg>
