<svg width="70" height="64" viewBox="0 0 70 64" fill="none" xmlns="http://www.w3.org/2000/svg">
<g clip-path="url(#clip0)">
<path d="M0.5 3.09998H3.7C6.2 3.09998 8.6 3.99998 10.4 5.69998L62.2 52.3C64.3 54.2 65.5 56.9 65.5 59.8V63.1C65.5 63.1 70.4 53.6 68.6 46.2C66.8 38.9 61.2 34.2 61.2 34.2C61.2 34.2 66.5 38.6 67.6 40.4C67.6 40.4 68 39.4 68.1 37.8C68.3 34.2 66.8 30.7 64 28.4L37 4.89998C35.2 3.39998 33.1 2.29998 30.9 1.59998C27.6 0.599977 22.9 -0.300023 19.5 1.69998C19.5 1.69998 25.6 2.89998 27.6 5.59998C27.6 5.59998 24.1 2.59998 13.8 1.29998C13.8 1.29998 4.1 -0.500023 0.5 3.09998Z" fill="#7507CA" stroke="white" stroke-miterlimit="10" stroke-linecap="round" stroke-linejoin="round"/>
<path d="M27.6 15.1L26.6 14.2L32.2 7.90002L35.3 10.7L29.7 17L28.7 16.1L33.5 10.7L32.4 9.70002L27.6 15.1Z" fill="white"/>
<path d="M34.8999 13C35.7999 12 36.7999 11.9 37.7999 12.8C38.7999 13.7 38.7999 14.7 37.8999 15.7L34.9999 18.9C33.9999 19.9 32.9999 20 31.9999 19.2C30.9999 18.3 30.9999 17.3 31.8999 16.3L34.8999 13ZM32.8999 17.2C32.4999 17.6 32.4999 18 32.8999 18.3C33.1999 18.6 33.5999 18.6 33.9999 18.1L36.9999 14.7C37.3999 14.3 37.3999 13.9 36.9999 13.6C36.6999 13.3 36.2999 13.3 35.8999 13.8L32.8999 17.2Z" fill="white"/>
<path d="M36.5 24.6L37.3 23.8L35.2 21.9L34.4 22.7L33.4 21.8L34.9 20.1L35.3 20.4C35.7 20.3 35.9 20.2 36.3 19.8L40.6 15.4L43.4 17.9L38.6 23.3L39 23.7L37.5 25.4L36.5 24.6ZM37.4 20.7C36.9 21.1 36.7 21.3 36.4 21.3L37.7 22.5L41.7 18L40.9 17.3L37.4 20.7Z" fill="white"/>
<path d="M42.2 28.1L41.2 27.2L42 25.9L40.7999 24.8L39.5999 25.8L38.7 25L45.2999 19.6L46.7 20.9L42.2 28.1ZM41.7 24.2L42.5999 25L45 21.4L41.7 24.2Z" fill="white"/>
<path d="M50 26.7L49.3 27.5C48.4 28.5 47.4 28.6 46.5 27.7L46 27.3L43.9 29.6L42.9 28.7L48.5 22.4L49.9 23.7C50.9 24.7 50.9 25.7 50 26.7ZM48.7 24.3L46.8 26.4L47.3 26.8C47.6 27.1 47.9 27.1 48.3 26.6L49.1 25.7C49.5 25.3 49.5 25 49.1 24.7L48.7 24.3Z" fill="white"/>
<path d="M50.7 27.2C51.6 26.2 52.6 26.1 53.6 27C54.6 27.9 54.6 28.9 53.7 29.9L50.8 33.2C49.9 34.2 48.9 34.3 47.9 33.4C46.9 32.5 46.9 31.5 47.8 30.5L50.7 27.2ZM48.7 31.3C48.3 31.7 48.3 32.1 48.7 32.4C49 32.7 49.4 32.7 49.8 32.2L52.8 28.8C53.2 28.4 53.2 28 52.8 27.7C52.5 27.4 52.1 27.4 51.7 27.9L48.7 31.3Z" fill="white"/>
<path d="M53.7999 34L52.9999 34.3L51.2999 36.2L50.2999 35.3L55.8999 29L56.8999 29.9L54.4999 32.6L58.1999 31L59.1999 31.9L55.2999 33.5L53.5999 38.2L52.5999 37.3L53.7999 34Z" fill="white"/>
</g>
<defs>
<clipPath id="clip0">
<rect width="69.6" height="63.6" fill="white"/>
</clipPath>
</defs>
</svg>
