<svg width="523" height="563" viewBox="0 0 523 563" fill="none" xmlns="http://www.w3.org/2000/svg">
<path d="M581.473 70.5152C573.373 63.2182 559.332 63.0781 548.795 64.7985C533.523 67.4036 519.082 75.8076 505.077 82.3113C503.139 80.6484 499.51 82.8115 501.15 85.4681C504.354 91.0295 498.972 97.6768 497.84 103.7C493.503 104.163 489.39 103.88 485.017 103.112C487.728 94.9891 489.519 86.3199 485.905 78.0638C481.497 67.9455 471.471 62.1028 463.308 55.464C455.482 49.061 453.258 48.8016 443.478 51.1549C434.432 53.3214 426.307 47.9121 417.807 49.1593C419.261 48.376 420.889 47.9155 422.778 47.9391C425.325 48.0245 427.81 48.768 430.432 48.6049C435.427 48.2044 440.298 46.413 445.207 45.8511C445.704 45.9998 446.027 45.8258 446.598 45.726C447.17 45.6263 447.829 45.688 448.649 45.6627C452.016 45.7226 452.191 40.6309 448.824 40.571C448.004 40.5963 447.184 40.6217 446.364 40.647C441.059 36.217 435.593 31.8739 429.654 28.2018C420.2 22.2593 406.234 19.1635 409.17 4.88038C409.668 2.32186 406.835 0.932793 405.219 1.8031C386.245 1.40525 371.536 -10.0353 355.659 -19.3888C355.149 -19.9474 354.491 -20.009 353.596 -19.7353C340.088 -15.7901 326.245 -12.0807 313.362 -20.1321C299.894 -28.4937 287.82 -42.3948 277.447 -54.2976C268.777 -64.2021 261.685 -76.2063 251.585 -84.5079C242.491 -92.1023 233.159 -91.2395 222.735 -93.9526C222.338 -96.2373 219.045 -96.5457 217.876 -94.4587C216.832 -93.6881 216.472 -92.0362 217.08 -90.9065C215.973 -84.0632 214.194 -77.6914 211.682 -71.1328C211.148 -69.8037 212.179 -68.2769 213.421 -67.9051C217.571 -66.3927 226.293 -62.9707 225.956 -57.792C225.732 -54.3395 220.35 -47.6922 218.808 -44.3631C215.103 -36.5371 211.734 -28.4754 208.862 -20.2649C205.852 -11.1479 203.912 -1.98179 201.896 7.4327C200.59 13.1336 198.415 17.2207 195.195 22.0783C193.629 24.5879 192.771 26.091 192.447 28.9723C191.29 36.8836 192.17 47.029 192.988 55.1253C193.694 62.2407 195.88 66.6851 202.142 70.1832C211.571 75.3061 214.365 83.5874 220.999 91.2579C226.191 97.4142 232.962 101.471 240.516 104.273C241.013 104.421 241.423 104.409 241.833 104.396C243.113 105.997 246.294 105.325 246.381 102.779C246.431 101.711 246.556 100.394 246.606 99.3262C246.681 99.0778 246.532 96.8674 246.756 96.1221C247.017 96.6063 249.576 97.1014 249.986 97.0887C252.372 97.2611 254.733 96.6138 256.659 95.1596C257.54 99.8905 255.141 104.723 255.202 109.479C255.424 114.148 257.573 117.363 259.747 121.398C262.193 126.327 263 131.306 264.875 136.334C266.837 141.524 279.123 154.27 271.79 158.845C271.629 158.932 271.467 159.019 271.306 159.106C269.926 159.64 268.982 160.982 270.013 162.509C274.844 170.317 278.422 171.929 287.07 172.893C295.805 174.017 298.588 179.182 304.24 184.257C307.11 186.876 316.342 188.149 315.508 193.179C310.513 193.579 306.088 196.588 304.012 201.246C300.929 207.904 305.376 213.837 305.66 220.556C305.721 222.605 307.635 223.448 309.101 223.074C310.12 224.191 312.095 224.376 312.866 222.712C314.394 224.387 315.922 226.063 317.288 227.825C317.325 229.055 317.449 230.446 317.486 231.675C317.846 232.73 317.796 233.798 318.157 234.854C318.889 237.374 320.193 239.795 322.056 241.706C325.1 244.648 330.071 243.427 333.201 246.53C338.27 251.296 336.901 260.362 337.085 266.509C337.58 274.779 340.461 283.222 345.504 289.875C350.808 297.013 356.127 293.731 363.221 297.613C364.973 298.543 366.502 297.512 366.949 296.021C378.842 290.239 386.776 313.867 388.875 320.857C392.152 331.584 391.603 343.333 381.971 350.603C381.486 350.865 381.25 351.2 381.262 351.61C379.511 350.68 376.702 352.817 377.757 355.164C378.987 357.833 380.54 360.328 382.254 362.736C380.215 365.917 378.09 368.936 375.554 371.967C375.318 372.303 375.243 372.551 375.169 372.8C374.758 372.812 374.348 372.825 373.864 373.086C368.843 375.374 363.512 378.246 358.131 379.479C353.894 380.513 349.955 380.552 345.991 382.48C336.931 386.944 331.896 396.944 321.707 399.31C320.402 399.596 319.296 401.025 319.83 402.403C321.381 407.605 323.791 411.305 327.829 414.543C324.671 421.45 318.556 425.577 310.691 426.066C308.64 426.129 307.547 427.968 308.341 429.83C312.216 438.57 317.209 446.292 314.97 456.451C313.962 461.159 311.228 465.755 310.058 470.549C307.111 481.715 305.654 493.328 302.706 504.494C301.002 510.617 299.05 516.666 295.768 522.182C292.723 527.362 288.075 531.116 284.942 536.135C281.35 542.235 281.46 548.63 287.261 553.209C288.442 554.239 289.821 553.704 290.368 552.785C290.94 552.685 291.35 552.672 291.909 552.163C295.115 549.603 292.606 545.332 295.987 543.095C299.852 540.596 309.358 540.056 309.878 546.439C309.99 547.42 310.499 547.978 311.008 548.537C311.964 550.312 315.568 550.037 315.979 547.317C316.726 542.125 323.039 539.141 321.549 533.28C321.003 531.492 319.002 530.488 318.555 529.271C317.127 525.459 320.558 519.447 322.808 515.111C325.368 515.606 328.04 514.375 329.768 511.779C332.204 508.176 331.646 503.271 334.741 499.73C338.867 495.008 346.224 491.253 351.618 487.723C359.746 482.303 368.655 481.043 377.317 477.002C381.766 474.813 384.313 474.899 388.575 477.392C389.743 478.012 390.363 479.552 391.531 480.172C393.035 481.028 393.942 481.164 395.259 481.287C395.259 481.287 395.259 481.287 395.346 481.449C396.911 484.354 401.434 481.917 399.869 479.012C394.479 469.006 405.117 462.442 402.448 452.844C401.703 449.914 399.343 447.854 397.79 445.359C394.499 439.636 395.456 435.997 395.88 430.98C396.713 431.364 397.545 431.748 398.614 431.797C398.775 431.71 398.775 431.71 399.024 431.785C399.931 431.921 401.074 431.721 401.782 430.715C415.057 413.569 428.642 398.547 452.362 403.884C453.629 405.075 456.089 404.999 456.848 402.925C459.869 394.218 477.626 392.356 484.92 391.967C486.722 391.829 488.387 389.891 487.269 388.202C482.177 379.91 490.081 375.236 495.884 371.693C496.531 371.345 496.841 370.761 496.991 370.264C497.152 370.177 497.152 370.177 497.227 369.929C500.384 365.729 505.244 360.821 508.463 355.963C507.058 358.386 506.163 361.367 505.417 363.851C502.882 364.175 502.098 368.137 504.993 368.868C510.286 370.181 520.139 372.994 525.483 370.532C527.508 369.649 528.105 367.661 528.864 365.587C530.455 361.19 531.798 356.718 532.98 352.334C533.502 350.595 531.875 348.348 530.011 349.144C527.091 350.301 524.158 351.048 521.138 351.633C518.442 352.045 514.975 351.414 512.378 352.396C511.16 352.844 510.042 353.863 509.259 355.118C510.203 353.776 510.899 352.36 511.434 351.031C512.342 348.46 512.305 347.23 513.883 345.131C517.525 340.67 529.454 341.532 535.17 340.535C541.296 339.525 546.341 338.057 551.747 334.936C552.07 334.762 552.306 334.427 552.543 334.091C553.363 334.066 554.245 333.382 554.457 332.227C556.074 323.235 574.814 315.847 581.91 311.608C590.696 306.25 598.86 304.767 608.752 303.394C609.162 303.382 609.646 303.121 609.969 302.947C611.113 302.747 612.157 301.977 612.033 300.586C611.551 290.018 616.958 281.483 626.937 277.565C627.832 277.291 628.292 276.21 628.267 275.391C628.194 267.518 634.942 265.34 640.211 263.126C641.429 262.678 642.026 260.691 641.256 259.648C637.293 253.454 635.841 248.823 641.409 242.908C643.398 240.796 645.983 239.403 647.971 237.291C652.11 232.979 654.335 227.824 655.803 222.036C656.251 220.546 655.394 219.341 654.064 218.808C648.15 215.956 645.641 211.685 646.699 205.91C646.886 203.935 645.221 203.167 643.668 203.379C643.171 203.23 642.599 203.33 642.04 203.839C637.852 206.512 633.502 209.271 629.227 211.783C622.206 215.773 617.384 216.497 609.308 215.434C605.928 214.964 602.474 214.743 598.945 214.77C598.125 214.795 596.982 214.995 596 215.107C599.443 212.211 602.289 208.596 604.962 204.657C609.213 198.619 605.934 193.306 603.686 186.813C603.152 185.435 601.388 184.095 599.859 185.126C599.3 185.636 598.654 185.984 598.008 186.332C596.318 187.451 596.119 186.308 597.574 182.818C599.152 183.425 600.705 183.213 602.32 182.343C605.141 180.615 605.627 177.647 606.025 174.517C606.424 171.387 608.798 168.443 607.382 165.041C606.314 162.285 602.761 161.492 600.984 159.742C602.513 158.71 603.954 157.517 605.396 156.324C605.719 156.15 605.794 155.902 605.868 155.653C607.695 156.335 610.18 154.372 609.125 152.025C606.48 145.954 610.918 137.941 610.31 131.397C609.579 123.462 606.786 115.181 604.911 107.445C600.591 92.0741 593.287 81.2249 581.473 70.5152ZM515.471 356.977C516.291 356.952 516.863 356.852 517.683 356.827C520.715 356.651 523.647 355.904 526.58 355.157C525.635 359.206 524.304 364.087 521.794 365.231C518.96 366.549 514.09 365.633 510.201 364.605C510.959 362.531 511.544 360.134 512.65 358.705C513.011 357.053 513.98 356.531 515.471 356.977ZM603.403 125.54C605.091 132.543 603.773 137.834 602.914 144.752C602.503 147.472 602.565 149.521 603.372 151.793C602.713 151.731 601.98 151.918 601.421 152.427C599.743 153.956 597.978 155.323 595.965 156.616C595.082 157.299 594.374 158.306 594.572 159.448C595.193 160.988 595.715 161.956 596.982 163.147C598.249 164.339 600.647 164.921 601.591 166.286C602.871 167.888 601.056 170.323 600.695 171.975C600.546 172.471 599.749 178.731 598.904 177.937C598.147 177.304 597.24 177.168 596.506 177.354C595.674 176.97 594.605 176.921 593.897 177.927C591.2 181.046 588.216 185.568 591.297 189.739C593.433 192.544 596.465 192.368 599.137 191.137C599.758 192.677 600.217 194.303 600.59 195.768C601.347 199.109 601.21 200.015 599.159 202.786C595.219 208.24 591.092 212.962 584.519 215.462C584.357 215.549 584.195 215.636 584.034 215.723C583.301 215.91 582.741 216.419 582.344 216.842C582.182 216.929 582.269 217.09 582.108 217.177C581.163 218.519 582.045 220.543 583.536 220.989C587.673 222.091 593.601 219.939 597.863 219.725C603.765 219.461 609.48 221.171 615.233 221.403C624.428 221.447 633.19 215.27 640.672 210.198C641.49 215.587 644.409 219.845 649.416 222.562C647.613 228.114 644.63 232.636 640.23 236.464C637.347 238.85 634.128 241 632.425 244.416C629.876 249.746 631.751 254.774 634.521 259.528C630.47 261.294 626.431 263.47 624.255 267.557C621.284 272.489 621.707 272.886 616.736 276.814C609.913 281.947 606.295 289.934 606.218 298.304C600.577 299.053 594.761 299.479 589.48 301.283C583.304 303.361 577.848 307.549 572.28 310.757C564.786 315.418 551.303 320.183 549.052 329.933C548.89 330.02 548.729 330.107 548.729 330.107C541.148 334.607 532.636 335.445 524.05 336.531C519.552 337.08 511.736 336.501 507.983 339.981C505.348 342.441 506.453 343.72 505.806 346.775C504.376 353.792 496.72 361.248 492.382 367.125C492.22 367.212 492.307 367.373 492.307 367.373C483.359 372.818 476.598 377.293 480.659 386.766C470.917 387.641 457.944 390.257 452.935 398.37C442.771 396.141 432.37 396.955 422.988 401.593C412.636 406.753 405.936 415.984 399.15 425.054C398.653 424.905 397.919 425.092 397.435 425.353C397.186 425.279 397.012 424.956 396.764 424.882C395.844 424.336 395.087 423.703 394.254 423.318C391.745 421.755 389.383 425.11 390.923 427.195C390.723 431.467 388.722 435.877 389.59 440.198C390.471 444.929 395.23 447.571 396.509 451.88C398.346 458.386 393.573 463.455 392.69 469.553C392.49 471.118 392.54 472.758 392.75 474.31C391.396 472.957 389.868 471.281 388.949 470.736C386.949 469.731 385.135 469.459 382.836 469.448C379.394 469.636 376.498 471.613 373.503 473.018C368.644 475.219 363.649 475.62 358.778 477.411C350.501 480.62 342.572 487.182 335.426 492.489C333.015 494.205 330.443 496.007 328.715 498.603C327.77 499.945 325.146 510.937 322.971 509.61C321.804 508.99 320.002 509.127 319.467 510.456C316.458 516.866 310.766 524.097 313.199 531.323C313.373 531.646 313.957 531.956 314.131 532.279C314.938 534.551 315.969 536.078 314.664 539.072C314.278 539.904 313.893 540.736 313.421 541.407C310.924 537.547 305.867 535.898 300.797 536.547C297.442 536.897 293.702 538.079 291.228 540.453C290.11 541.472 289.252 542.975 289.053 544.54C288.916 545.446 289.288 546.911 288.99 547.905C284.295 541.897 295.977 531.856 298.96 527.334C301.161 524.066 302.777 520.489 304.393 516.911C308.521 506.775 310.325 495.808 312.465 485.077C314.531 474.595 318.596 465.117 321.655 454.932C323.882 447.07 318.777 438.368 314.778 430.944C323.998 429.1 330.958 423.06 334.042 413.695C334.713 411.459 332.539 410.132 330.911 410.592C328.476 408.781 326.687 406.621 325.781 403.778C333.734 400.743 338.296 394.121 345.38 389.472C350.774 385.941 356.191 385.938 362.206 383.947C367.164 382.317 371.849 379.793 376.634 377.841C377.118 377.58 377.603 377.318 377.752 376.822C378.411 376.883 378.895 376.622 379.368 375.951C382.376 372.249 385.297 368.385 387.634 364.211C388.342 363.204 388.057 361.9 387.212 361.106C385.759 359.182 384.38 357.01 383.25 354.912C383.995 355.135 384.815 355.11 385.536 354.513C399.021 344.334 397.124 327.657 391.61 313.553C387.86 303.496 377.763 284.366 364.03 291.764C363.707 291.938 363.546 292.025 363.471 292.273C361.073 291.691 358.451 291.854 356.041 290.862C345.406 286.597 342.452 272.988 342.156 263.153C341.922 255.366 341.8 245.854 334.507 240.829C329.314 237.38 325.586 238.972 323.066 231.585C321.625 227.363 323.043 222.643 319.975 218.882C317.242 215.357 312.881 215 310.171 217.709C309.327 214.207 307.998 210.967 307.726 207.366C307.578 202.448 311.729 198.546 316.488 198.481C317.718 198.443 318.439 197.846 318.825 197.014C319.309 196.753 319.868 196.244 320.092 195.498C323.525 184.071 312.217 184.749 306.13 178.866C302.751 175.689 300.851 172.549 296.515 170.304C289.097 166.595 281.455 169.046 275.666 162.17C278.562 160.194 281.272 157.485 281.496 154.032C281.671 151.648 280.64 150.121 279.435 148.272C276.007 143.455 271.82 140.714 269.585 134.63C268.07 130.657 267.449 126.41 265.773 122.524C263.476 117.099 260.06 112.692 260.446 106.446C260.684 100.696 262.772 96.4473 260.388 90.8605C259.854 89.4824 258.699 89.272 257.642 89.6328C256.723 89.087 255.567 88.8766 254.697 89.9699C252.87 91.9953 250.832 92.4685 248.347 91.725C246.856 91.2788 245.689 90.6587 243.986 91.3676C241.314 92.5987 241.09 96.0512 241.101 99.1682C232.131 95.6719 225.808 90.1248 220.554 81.9195C217.796 77.5747 215.362 73.0559 211.324 69.8173C208.802 67.8443 205.994 67.2748 203.559 65.4633C197.348 60.8972 198.132 54.2279 198.022 47.8325C197.801 37.7488 197.517 31.0306 202.402 21.5274C208.22 10.2725 209.131 -3.12759 212.874 -15.1386C217.512 -30.1307 224.064 -44.2795 232.119 -57.5723C232.828 -58.5787 232.542 -59.8824 231.698 -60.6767C227.611 -65.5546 223.076 -68.942 217.336 -71.4717C219.388 -76.9496 220.942 -82.5761 221.913 -88.5128C228.772 -87.002 236.066 -87.3916 242.24 -84.0549C248.241 -81.041 252.664 -75.9274 256.924 -70.7267C267.495 -57.6816 277.569 -44.7851 289.657 -33.1814C298.365 -24.7548 308.377 -13.9073 320.541 -10.6738C331.463 -7.81199 342.945 -10.8742 353.607 -13.911C369.82 -4.32173 384.43 6.54767 403.503 7.51669C402.694 13.3663 403.103 18.7681 408.234 22.8754C412.693 26.5112 418.906 28.37 423.751 31.1736C429.267 34.4486 434.547 38.059 439.43 42.0919C433.962 43.1634 428.668 44.5576 423.052 43.4186C420.493 42.9235 417.511 42.0313 415 43.1753C412.167 44.4935 412.328 47.1137 410.426 49.3875C409.158 50.9033 409.953 52.7656 411.208 53.5472C411.096 55.2734 412.798 57.2717 414.898 56.1403C423.46 51.5277 431.038 57.8563 439.649 57.5901C441.948 57.601 443.812 56.8051 445.85 56.3319C451.728 55.2478 455.231 57.1083 460.002 60.1603C466.698 64.4653 475.345 70.8429 479.568 77.5214C485.431 86.8564 481.962 97.0542 478.716 106.507C477.572 109.413 481.97 111 483.375 108.578C489.153 109.63 494.906 109.862 500.796 109.188C501.778 109.075 502.809 107.895 502.859 106.827C502.737 100.022 507.982 94.2809 507.213 87.8238C520.087 81.9293 533.397 74.1345 547.178 71.0833C554.435 69.4643 563.046 69.198 570.327 71.1059C577.447 73.1008 582.614 78.4375 587.372 83.7869C597.732 95.2799 599.915 110.553 603.403 125.54Z" fill="#FD5209"/>
<path d="M223.249 -14.0647C224.404 -13.8543 225.685 -14.9603 226.592 -14.8243C231.4 -13.2502 231.038 -6.18383 232.056 -2.35957C233.732 4.23359 237.023 9.95644 244.192 10.8833C244.851 10.945 245.162 10.3611 245.311 9.86428C251.089 8.20897 254.332 9.58539 255.362 13.8194C255.797 14.6264 256.07 15.5203 256.505 16.3273C258.058 18.8224 258.07 19.2322 260.43 21.2922C265.412 25.8963 273.624 28.7598 279.551 32.0221C280.222 32.4936 280.942 31.897 281.005 31.2388C285.528 31.5092 292.399 30.7225 294.475 28.7715C294.873 28.349 295.096 27.6037 295.407 27.0199C300.454 20.1368 294.153 23.5311 304.443 16.3219C318.275 6.78815 306.83 13.787 314.745 12.2297C318.336 11.5444 317.889 13.0349 321.455 11.53C324.773 9.95077 324.177 9.23087 326.489 6.94441C329.434 3.90002 331.871 0.297123 335.897 -2.28846C338.072 -3.66828 340.756 -4.48959 343.093 -5.95645C347.119 -8.54204 348.76 -11.3 346.164 -15.7317C345.556 -16.8614 343.779 -15.9041 344.387 -14.7744C348.275 -8.33165 331.772 -2.98129 328.429 0.485578C323.731 5.30692 325.258 9.68967 315.007 10.0066C312.795 10.157 307.887 8.01171 305.042 8.92006C300.816 10.3633 299.263 13.2826 297.323 17.0342C295.769 19.9535 294.948 25.3933 292.052 27.3697C291.729 27.5438 283.888 28.8527 280.297 29.5379C280.21 29.3765 280.048 29.4636 279.961 29.3022C280.111 28.8054 280.098 28.3956 279.514 28.0855L279.266 28.0111C278.769 27.8624 278.359 27.8751 277.961 28.2976C274.545 26.5984 270.879 24.8249 267.699 22.7902C262.009 19.1925 259.674 15.2449 256.395 9.93181C254.581 6.95251 251.923 3.17897 247.847 4.12534C246.132 4.42446 244.579 7.34378 243.845 7.53052C234.55 9.62269 232.99 -12.2329 230.121 -17.5586C229.86 -18.0427 229.202 -18.1044 228.63 -18.0047C223.2 -15.7039 218.018 -16.0359 213.086 -19.0008C211.918 -19.621 210.824 -17.7824 211.992 -17.1622C215.93 -14.4947 218.714 -14.7448 223.249 -14.0647Z" fill="#FD5209"/>
<path d="M583.598 217.624C582.716 218.307 582.567 218.804 582.355 219.959C581.87 222.927 582.019 225.138 580.378 227.896C578.501 230.989 576.003 232.543 572.225 232.496C571.157 232.447 570.262 232.72 569.442 232.746C570.785 228.274 573.246 225.491 565.704 223.099C564.213 222.653 561.194 220.531 559.479 220.83C556.87 221.403 555.054 226.546 553.501 226.758C551.948 226.97 545.351 220.529 545.935 220.839C543.6 219.598 542.767 219.214 540.332 220.11C535.46 221.901 532.129 228.485 528.45 231.716C528.847 231.294 523.317 235.73 522.758 236.24C521.092 238.178 520.569 242.624 519.077 244.886C519.077 244.886 519.077 244.886 518.916 244.973C515.064 245.174 512.841 239.5 509.921 237.949C507.586 236.709 507.362 237.454 504.802 236.959C503.647 236.749 496.154 235.996 496.739 233.599C496.963 232.854 503.785 230.428 504.593 229.993C505.239 229.644 505.301 228.986 504.792 228.428C499.997 221.849 492.827 223.629 489.213 215.373C487.711 211.81 489.042 206.929 486.644 203.639C484.595 200.996 480.843 199.061 477.911 197.1C478.122 195.945 478.172 194.877 478.222 193.809C478.297 190.854 476.719 190.246 479.342 187.376C480.535 186.108 481.939 186.393 483.282 184.629C487.595 177.932 484.009 156.96 475.399 154.519C475.15 154.445 470.864 153.839 471.46 154.559C468.913 151.766 472.605 146.238 474.271 144.299C476.893 141.429 480.795 140.16 484.188 138.332C487.904 136.33 493.57 133.694 494.752 129.31C495.337 126.912 494.38 125.137 495.052 122.901C495.798 120.417 497.563 119.05 498.557 116.64C500.236 112.405 498.796 108.183 495.988 104.906C495.218 103.864 493.702 105.305 494.472 106.348C497.962 110.506 494.021 118.667 492.194 123.4C492.293 123.971 492.318 124.791 492.665 125.436C492.801 129.944 490.924 133.038 487.034 134.716C483.567 136.793 479.926 138.546 476.372 140.461C471.438 142.91 464.03 150.44 468.477 156.374C469.421 157.739 470.304 157.055 471.136 157.44C474.043 158.581 476.864 159.56 479.61 160.788C481.609 164.499 482.553 168.572 482.601 172.919C482.551 173.987 482.588 175.216 482.7 176.197C483.32 180.444 481.617 183.86 477.093 186.297C476.708 187.129 475.328 187.664 475.03 188.658C474.881 189.154 475.402 190.123 475.253 190.62C476.048 192.482 476.433 194.357 476.32 196.083L476.233 195.922C475.227 195.214 474.046 196.892 475.14 197.76C475.475 197.996 475.81 198.232 476.146 198.467C475.872 200.281 475.027 202.194 473.846 203.871C472.826 205.461 471.807 207.051 470.701 208.48C470.465 208.816 470.477 209.225 470.564 209.387C469.793 211.051 470.389 211.771 470.936 213.559C471.817 215.583 474.886 219.344 470.86 219.222C470.45 219.235 469.68 218.192 469.021 218.13C466.3 217.722 464.634 219.661 463.64 222.07C462.807 224.393 463.117 226.517 462.855 228.74C462.395 232.528 459.412 234.343 456.342 235.996C456.417 235.748 456.33 235.586 456.243 235.425C453.933 232.297 451.398 229.914 448.852 227.122C444.355 222.257 445.172 233.06 443.263 215.973C443.065 214.831 444.009 213.489 443.811 212.347C443.327 209.901 442.718 208.771 441.178 206.686C438.097 202.515 437.177 204.676 441.18 198.564C441.416 198.229 441.391 197.409 440.808 197.099C430.234 192.175 419.922 187.736 408.005 189.991L407.844 190.078C407.708 185.571 407.747 178.678 401.597 178.868C399.956 178.919 398.515 180.112 396.875 180.163C395.507 181.108 394.588 180.562 393.955 178.612C392.042 177.769 391.681 176.714 392.962 175.608C393.185 174.863 394.068 174.179 394.54 173.508C395.957 171.495 397.138 169.818 396.654 167.372C397.052 166.95 397.114 166.291 396.369 166.068C391.871 163.91 388.615 164.831 383.881 165.716C369.118 168.88 379.346 162.329 376.8 156.829C375.919 154.805 373.434 154.062 371.757 152.883C368.899 150.674 367.086 147.695 364.39 145.399C361.607 142.942 358.625 142.05 355.705 143.207C355.693 142.797 355.842 142.3 355.83 141.89C355.954 140.574 353.817 140.476 353.692 141.792C353.779 141.954 353.618 142.041 353.705 142.202C353.456 142.128 353.121 141.892 352.872 141.818C349.555 140.69 349.877 143.223 346.151 139.4C345.132 138.283 344.002 136.185 343.145 134.981C341.344 132.412 337.965 129.235 337.779 125.795C338.364 123.398 338.948 121 339.694 118.516C340.502 118.081 341.223 117.485 341.695 116.814C342.143 115.323 342.441 114.33 342.405 113.1C344.231 113.782 345.97 114.302 348.207 114.972C355.078 116.892 359.761 122.49 366.607 123.591C366.793 124.324 367.874 124.782 368.508 124.024C373.605 116.073 384.24 120.339 389.771 113.194C391.748 110.672 391.101 111.02 391.599 108.462C392.01 105.742 391.75 102.551 392.16 99.8307C392.273 98.1044 392.633 96.4525 393.156 94.7136C393.629 91.3355 396.027 89.2104 400.265 88.177C400.364 88.7482 400.712 89.3937 401.445 89.207C403.968 88.4727 405.011 87.7021 406.677 85.7638C409.051 82.8191 410.197 71.7907 415.513 79.3378C415.687 79.6606 416.271 79.9707 416.594 79.7966C420.67 78.8503 422.733 76.4895 422.685 72.143C422.524 66.8156 420.672 70.7286 423.643 65.7966C425.048 63.3741 427.995 54.9152 431.896 56.3533C433.139 56.7251 433.374 59.0969 434.318 60.4623C436.827 64.7327 439.461 67.6866 444.729 68.18C445.636 68.3161 446.009 67.074 445.5 66.5155C444.904 63.0883 444.222 59.4998 443.626 56.0727C443.999 54.8306 442.173 54.1487 441.638 55.4779C440.42 58.6329 441.289 60.2468 441.139 63.4508C441.064 63.6993 442.605 65.7846 442.53 66.033C441.349 67.7103 434.394 54.7994 434.046 54.1539C433.86 53.4213 433.028 53.0368 432.307 53.6334C430.07 55.6714 427.162 54.5308 424.938 56.9786C422.079 60.1844 424.289 65.4484 418.846 67.3395C418.113 67.5262 417.566 68.4455 418.324 69.0784C417.713 76.0704 416.533 77.7476 414.794 74.5199C414.533 74.0358 414.024 73.4773 413.763 72.9931L413.427 72.7573C411.066 73.4046 410.458 72.2749 408.295 74.0645C404.368 77.2213 405.645 89.6514 400.44 83.0853C400.266 82.7626 399.608 82.7009 399.284 82.8749C391.294 87.3879 392.186 95.2358 389.96 103.098C388.032 109.967 397.401 110.333 379.022 116.07C377.071 116.704 375.257 116.432 373.393 117.228C371.044 118.285 369.454 119.975 367.95 121.827C367.863 121.665 367.701 121.752 367.453 121.678C361.6 120.874 358.756 116.368 353.687 114.31C349.698 112.711 345.921 112.663 342.007 110.815L341.759 110.741C341.759 110.741 341.672 110.58 341.51 110.667C339.013 109.513 337.063 107.441 334.715 105.79C326.254 100.145 315.816 105.144 316.913 89.7694C317.733 89.7441 318.268 88.415 317.51 87.7821C313.236 84.8789 308.851 80.9946 303.645 79.843C298.439 78.6914 294.598 82.0095 289.504 81.8389C286.298 81.6919 284.36 80.029 281.614 78.8013C280.869 78.5783 275.426 77.7621 275.004 77.365C270.283 73.245 278.599 60.4363 282.8 58.1735C283.446 57.8253 283.421 57.0057 282.999 56.6086C282.912 56.4472 283.074 56.3602 282.987 56.1988C282.59 53.9141 281.633 52.1388 279.782 50.6373C277.012 48.59 274.091 49.7468 274.279 45.0649C274.33 41.2897 277.238 39.7231 279.04 36.8781C280.059 35.2879 280.097 33.8101 279.066 32.2833C278.296 31.2406 276.519 32.1979 277.289 33.2406C278.407 34.9288 274.019 39.1663 273.249 40.8309C272.403 42.7438 271.98 45.054 272.129 47.2643C272.327 48.4067 272.451 49.7975 273.458 50.5047C273.793 50.7405 274.29 50.8892 274.787 51.0379C278.017 52.0045 280.341 52.8351 280.949 56.672L281.036 56.8334C273.144 61.9175 272.173 70.5614 271.86 79.267C271.884 80.0866 272.717 80.471 273.363 80.1229C279.602 77.3869 285.166 85.0083 291.777 83.7375C296.512 82.8528 299.967 80.3669 304.949 82.2638C308.602 83.6275 311.881 86.2334 315.149 88.4294C314.987 88.5164 314.751 88.8518 314.763 89.2616C314.29 95.347 315.655 99.8168 319.332 104.707C319.593 105.192 320.165 105.092 320.488 104.918C327.298 102.082 332.205 106.935 337.398 110.384C338.317 110.929 339.236 111.475 340.069 111.86C340.416 115.213 336.165 118.543 335.531 122.009C335.132 125.138 336.287 128.056 337.765 130.799C339.156 133.382 341.194 135.616 342.908 138.024C343.765 139.228 344.572 141.5 345.752 142.53C347.516 143.87 350.61 143.036 352.524 143.879C350.075 147.072 344.607 150.851 343.401 154.416C341.585 159.558 338.527 164.329 337.284 169.372C336.102 173.756 342.041 174.721 336.063 180.648C332.533 183.383 329.427 183.807 327.067 181.747C326.98 181.585 326.731 181.511 326.57 181.598C322.096 182.967 321.884 186.829 317.348 188.856C316.13 189.304 317.173 191.241 318.304 190.632C322.032 189.04 323.226 185.065 327.737 184.926C328.557 184.9 329.662 186.179 330.806 185.979C335.627 185.256 339.368 181.367 340.04 176.424C340.513 173.045 339.185 169.805 340.478 166.402C341.622 163.495 343.573 160.153 344.879 157.159C348.099 149.594 353.044 150.262 354.946 145.281C360.663 141.577 364.315 148.355 367.197 151.383C368.638 152.897 370.886 153.976 372.241 155.329C377.495 160.827 371.195 161.514 372.822 166.468C373.368 168.256 374.548 169.286 376.449 169.719C378.102 170.079 379.233 169.469 380.861 169.009C385.993 167.702 389.112 164.98 394.591 167.026C395.634 171.669 386.09 176.394 390.587 181.26C392.028 182.774 394.078 182.71 395.954 182.324C398.974 181.739 401.833 178.533 404.913 182.704C406.367 184.628 405.583 188.59 405.731 190.8C405.843 191.781 406.998 191.991 407.558 191.482C407.806 191.556 408.055 191.631 408.303 191.705C415.324 190.421 421.922 191.448 428.482 193.952C430.308 194.634 436.012 195.935 436.794 197.387C438.359 200.292 436.196 202.082 434.543 204.43C434.232 205.014 434.419 205.746 435.164 205.969C442.694 207.951 439.137 217.988 441.112 223.587C440.95 223.674 440.627 223.848 440.552 224.097C439.135 226.11 437.557 228.209 436.053 230.061C435.73 230.235 435.742 230.644 435.754 231.054C436.052 232.768 437.182 234.866 437.48 236.579C438.051 239.187 437.616 241.087 437.354 243.31C436.298 240.964 434.907 238.382 434.572 238.146C432.149 236.744 429.08 238.398 426.371 238.399C417.101 238.604 417.698 236.617 414.95 246.218C414.801 246.715 415.148 247.36 415.645 247.509C415.918 248.403 416.279 249.458 416.552 250.352C415.819 250.539 415.085 250.726 414.352 250.912C413.793 251.422 412.65 251.621 412.09 252.131C409.679 253.846 406.907 259.921 403.13 257.166C402.956 256.843 403.031 256.595 402.857 256.272C402.249 255.142 400.633 256.013 400.993 257.068C400.757 257.403 400.769 257.813 401.192 258.21C401.279 258.372 401.279 258.372 401.44 258.285C402.446 261.699 401.115 266.581 397.188 267.03C394.492 267.442 394.443 265.802 392.281 264.885C391.448 264.5 390.79 264.439 389.895 264.712C388.677 265.16 388.615 265.818 387.733 266.502C386.527 267.36 385.57 268.292 384.439 268.901C384.278 268.988 384.116 269.075 383.954 269.162C383.793 269.249 383.631 269.336 383.47 269.423C382.662 269.858 382.848 270.591 383.358 271.149C383.009 273.211 382.673 275.682 384.189 276.948C386.127 278.611 388.041 276.747 387.816 280.2C387.567 282.832 384.037 285.567 382.881 288.064C381.725 290.56 381.227 293.119 381.065 295.913C380.94 297.23 383.078 297.328 383.202 296.011C383.315 291.578 384.994 287.342 388.101 284.211C389.294 282.943 390.748 282.16 390.935 280.185C390.973 278.707 389.855 277.019 388.836 275.902C388.414 275.505 387.842 275.605 387.668 275.282C385.482 273.545 385.457 272.725 385.806 270.663C386.775 270.141 387.657 269.458 388.627 268.935C390.242 268.065 391.112 266.972 393.523 267.964C393.858 268.2 394.032 268.522 394.529 268.671C396.442 269.514 397.685 269.886 399.785 268.755C403.091 266.766 404.707 263.188 404.434 259.587C406.435 260.591 408.149 260.292 410.387 258.254C413.904 255.11 408.672 258.553 417.831 251.953C418.316 251.692 419.72 251.977 420.031 251.393C420.416 250.561 421.137 249.964 421.025 248.983C421.038 246.686 419.336 247.395 418.876 245.768C416.728 239.846 422.071 240.091 426.01 240.051C427.489 240.088 429.365 239.702 430.844 239.738C434.795 240.108 432.459 238.868 434.273 241.847C435.652 244.019 435.291 245.671 437.241 247.744C437.577 247.979 437.825 248.054 437.987 247.967C438.247 251.158 439.165 254.411 439.103 257.777C439.298 269.748 446.963 276.238 450.005 287.301C450.104 287.872 450.688 288.182 451.26 288.083C458.38 287.37 464.963 296.109 468.64 300.999C471.211 304.611 472.826 306.448 472.962 310.956C473.197 316.035 471.581 316.906 468.337 320.944C467.865 321.614 468.374 322.173 468.958 322.483C468.97 322.893 469.306 323.129 469.964 323.19C475.941 322.677 478.847 329.232 481.281 333.751C482.151 335.365 483.952 337.935 484.088 339.735C484.435 343.088 482.124 342.667 479.502 342.83C474.022 343.492 469.151 345.283 465.919 349.731C465.758 349.818 465.596 349.905 465.348 349.831C464.204 350.03 464.502 351.744 465.409 351.88C465.832 352.277 466.403 352.177 466.801 351.755C468.863 352.101 470.18 354.932 472.081 355.365C472.826 355.588 473.473 355.24 474.131 355.302C476.691 355.797 473.101 351.068 476.802 356.778C474.74 353.724 478.193 359.36 478.193 359.36C478.454 359.844 478.715 360.329 479.224 360.887C480.069 361.681 482.281 361.531 483.449 362.151C485.611 363.069 486.405 364.931 488.008 366.358C489.859 367.859 491.909 367.796 494.096 366.826C495.314 366.378 494.358 364.603 493.14 365.051C491.599 365.673 484.878 360.548 482.642 359.879C479.908 359.061 481.25 360.004 480.766 357.558C480.567 356.415 480.456 355.435 479.847 354.305C478.468 352.132 477.251 352.58 475.2 352.644C471.671 352.671 471.461 351.119 468.64 350.139L468.392 350.065C470.455 347.704 473.04 346.312 476.221 345.639C478.992 344.979 482.21 345.536 484.981 344.876C487.019 344.403 487.492 343.732 487.181 341.608C486.127 336.555 482.338 330.683 479.506 326.587C477.283 323.62 474.835 321.399 471.058 321.352C477.447 312.704 477.771 309.823 470.579 299.955C467.585 295.946 463.324 290.745 458.728 288.016C455.634 286.143 453.919 286.442 451.46 283.81C447.646 279.827 443.411 270.031 442.269 264.816C441.314 260.334 440.334 252.324 440.522 247.642C440.746 244.19 441.567 241.457 441.543 237.93C441.457 232.355 438.113 238.529 440.712 229.424C440.414 230.418 442.353 226.666 443.124 225.002C443.807 225.883 444.789 225.771 446.131 226.714C449.994 229.63 452.355 231.689 455.435 235.86C455.522 236.022 455.858 236.257 456.019 236.17C455.858 236.257 455.858 236.257 455.696 236.344C454.565 236.954 455.522 238.729 456.652 238.12C459.722 236.466 465.413 234.649 466.123 230.936C466.77 227.88 463.417 220.108 470.996 221.023C471.406 221.01 471.853 222.227 472.586 222.04C475.022 221.144 475.643 219.977 476.129 217.008C476.415 215.605 476.378 214.375 475.844 212.997C475.31 211.619 472.104 211.472 473.832 208.876C474.068 208.54 474.143 208.292 473.969 207.969C476.095 204.95 477.648 202.031 478.618 198.801C481.799 200.836 485.153 203.193 486.171 207.017C486.444 207.911 485.574 209.005 485.847 209.899C487.636 214.766 491.362 218.588 492.827 223.629C493.001 223.952 493.262 224.436 493.834 224.336C502.929 223.809 503.65 225.92 495.659 230.433C494.677 230.545 494.292 231.377 494.888 232.097C497.024 234.903 499.26 238.279 502.664 239.568C503.41 239.791 504.292 239.108 504.951 239.17C510.405 240.396 511.002 241.115 514.878 244.441C515.971 245.31 519.45 246.351 520.121 246.822C523.326 249.676 524.616 257.102 526.479 261.72C524.963 263.162 523.608 264.516 523.098 266.665C521.979 270.391 524.165 274.836 520.486 278.067C520.163 278.241 520.013 278.738 520.187 279.061C521.007 281.742 524.124 287.143 522.956 289.23C522.57 290.062 521.017 290.274 520.569 291.764C519.462 295.9 524.469 298.617 528.035 299.819C527.961 300.068 527.886 300.316 528.06 300.639C530.916 305.555 526.392 310.699 527.049 316.175C527.818 322.632 531.457 329.001 534.575 334.401C535.183 335.53 536.961 334.573 536.352 333.443C532.29 326.678 526.751 317.169 529.959 309.194C531.65 305.368 532.097 303.878 530.011 300.004C530.57 299.495 530.62 298.427 529.875 298.204C527.228 297.547 523.004 296.283 523.974 293.054C524.72 290.57 523.676 291.34 525.962 290.941C526.695 290.755 526.919 290.009 526.658 289.525C524.833 286.136 522.51 282.598 523.132 278.723C523.195 278.065 524.077 277.382 524.226 276.885C525.383 271.681 524.092 266.962 528.728 262.799C528.889 262.712 528.964 262.464 529.039 262.216C531.487 261.73 534.332 260.821 536.631 260.832C539.588 260.905 541.327 264.133 542.867 266.218C543.464 266.938 544.595 266.329 544.57 265.509C544.595 263.621 545.204 262.044 546.485 260.938C546.485 260.938 546.485 260.938 546.646 260.851C550.797 259.656 554.399 264.795 559.133 263.91C559.705 263.811 559.854 263.314 559.842 262.904C559.582 259.713 560.924 257.948 564.117 257.685C565.634 256.244 567.025 256.119 568.293 257.31C568.703 257.298 569.771 257.347 569.858 257.508C570.43 257.408 570.914 257.147 570.977 256.489C570.903 254.03 572.32 252.017 572.159 249.397C571.874 245.386 570.533 241.736 570.41 237.638C570.484 237.39 570.311 237.067 570.062 236.993C569.951 236.012 570.013 235.353 570.15 234.447C572.66 233.303 575.319 234.369 577.754 233.473C579.295 232.851 580.414 231.832 581.446 230.652C582.875 229.049 584.13 227.123 584.727 225.136C585.175 223.646 585.201 219.051 586.083 218.367C586.083 218.367 584.642 216.853 583.598 217.624ZM567.51 255.858C567.187 256.032 564.677 254.469 564.019 254.407C562.702 254.284 561.248 255.067 560.452 255.912C559.011 257.105 558.563 258.595 557.457 260.024C556.425 261.205 556.773 261.85 556.86 262.012C556.524 261.776 555.27 260.994 551.057 260.14C549.405 259.781 547.579 259.099 545.864 259.398C545.528 259.163 545.031 259.014 544.634 259.436C543.192 260.629 542.247 261.971 541.886 263.623C540.52 261.861 539.067 259.937 537.166 259.503C534.109 258.859 530.133 260.377 526.951 261.049C524.753 256.195 523.127 251.241 522.059 245.778C521.972 245.616 521.799 245.294 521.712 245.132C525.801 239.181 528.81 232.771 534.987 227.986C537.336 224.222 540.828 222.966 545.872 224.204C546.469 224.924 547.065 225.644 547.661 226.364C548.829 226.984 551.973 227.789 552.258 229.093C552.444 229.826 553.438 230.123 553.997 229.614C556.856 226.408 559.703 222.792 564.039 225.037C569.207 227.667 566.136 234.735 567.353 239.701C567.44 239.863 567.44 239.863 567.526 240.024C567.836 244.855 569.946 254.962 567.51 255.858Z" fill="#FD5209"/>
</svg>
